<mxfile host="app.diagrams.net" modified="2021-12-09T06:27:48.835Z" agent="5.0 (Windows NT 10.0; Win64; x64) AppleWebKit/537.36 (KHTML, like Gecko) Chrome/96.0.4664.55 Safari/537.36 Edg/96.0.1054.43" etag="lrJZzeDeJ0-xyoM1XZKp" version="15.9.1" type="github">
  <diagram id="C5RBs43oDa-KdzZeNtuy" name="Page-1">
    <mxGraphModel dx="1422" dy="762" grid="1" gridSize="10" guides="1" tooltips="1" connect="1" arrows="1" fold="1" page="1" pageScale="1" pageWidth="827" pageHeight="1169" math="0" shadow="0">
      <root>
        <mxCell id="WIyWlLk6GJQsqaUBKTNV-0" />
        <mxCell id="WIyWlLk6GJQsqaUBKTNV-1" parent="WIyWlLk6GJQsqaUBKTNV-0" />
        <mxCell id="V7rD8RpQDC8H5o_zzoMz-0" value="common" style="ellipse;whiteSpace=wrap;html=1;aspect=fixed;" vertex="1" parent="WIyWlLk6GJQsqaUBKTNV-1">
          <mxGeometry x="560" y="300" width="80" height="80" as="geometry" />
        </mxCell>
        <mxCell id="V7rD8RpQDC8H5o_zzoMz-2" style="edgeStyle=orthogonalEdgeStyle;rounded=0;orthogonalLoop=1;jettySize=auto;html=1;entryX=0;entryY=0.5;entryDx=0;entryDy=0;" edge="1" parent="WIyWlLk6GJQsqaUBKTNV-1" source="V7rD8RpQDC8H5o_zzoMz-1" target="V7rD8RpQDC8H5o_zzoMz-0">
          <mxGeometry relative="1" as="geometry" />
        </mxCell>
        <mxCell id="V7rD8RpQDC8H5o_zzoMz-1" value="rpc" style="ellipse;whiteSpace=wrap;html=1;aspect=fixed;" vertex="1" parent="WIyWlLk6GJQsqaUBKTNV-1">
          <mxGeometry x="200" y="300" width="80" height="80" as="geometry" />
        </mxCell>
        <mxCell id="V7rD8RpQDC8H5o_zzoMz-4" style="edgeStyle=orthogonalEdgeStyle;rounded=0;orthogonalLoop=1;jettySize=auto;html=1;entryX=0.5;entryY=1;entryDx=0;entryDy=0;" edge="1" parent="WIyWlLk6GJQsqaUBKTNV-1" source="V7rD8RpQDC8H5o_zzoMz-3" target="V7rD8RpQDC8H5o_zzoMz-1">
          <mxGeometry relative="1" as="geometry" />
        </mxCell>
        <mxCell id="V7rD8RpQDC8H5o_zzoMz-6" style="edgeStyle=orthogonalEdgeStyle;rounded=0;orthogonalLoop=1;jettySize=auto;html=1;entryX=0;entryY=0.5;entryDx=0;entryDy=0;" edge="1" parent="WIyWlLk6GJQsqaUBKTNV-1" source="V7rD8RpQDC8H5o_zzoMz-3" target="V7rD8RpQDC8H5o_zzoMz-5">
          <mxGeometry relative="1" as="geometry" />
        </mxCell>
        <mxCell id="V7rD8RpQDC8H5o_zzoMz-3" value="interface" style="ellipse;whiteSpace=wrap;html=1;aspect=fixed;" vertex="1" parent="WIyWlLk6GJQsqaUBKTNV-1">
          <mxGeometry x="200" y="480" width="80" height="80" as="geometry" />
        </mxCell>
        <mxCell id="V7rD8RpQDC8H5o_zzoMz-5" value="infrasturcture" style="ellipse;whiteSpace=wrap;html=1;aspect=fixed;" vertex="1" parent="WIyWlLk6GJQsqaUBKTNV-1">
          <mxGeometry x="560" y="480" width="80" height="80" as="geometry" />
        </mxCell>
      </root>
    </mxGraphModel>
  </diagram>
</mxfile>
